<svg xmlns="http://www.w3.org/2000/svg" viewBox="115 25 260 70" role="img" aria-labelledby="title desc" color="#0D1117">
  <title id="title">Runza</title>
  <desc id="desc">Lowercase Runza wordmark.</desc>
  <g fill="none" stroke="currentColor" stroke-width="8" stroke-linecap="round" stroke-linejoin="round">
    <path d="M127 83V43m0 14c0-9 7-14 17-14h8"/>
    <path d="M174 43v25c0 10 7 15 16 15s16-5 16-15V43"/>
    <path d="M229 83V43m0 14c0-9 7-15 17-15s17 6 17 16v25"/>
    <path d="M285 43h32l-32 40h34"/>
    <path d="M358 47c-4-4-10-6-17-6-13 0-20 9-20 21s7 21 20 21c10 0 17-8 17-20m0-21v41"/>
  </g>
</svg>
